<?xml version="1.0" standalone="no"?>
<!DOCTYPE svg PUBLIC "-//W3C//DTD SVG 20010904//EN"
 "http://www.w3.org/TR/2001/REC-SVG-20010904/DTD/svg10.dtd">
<svg version="1.0" xmlns="http://www.w3.org/2000/svg"
 width="233.000000pt" height="233.000000pt" viewBox="0 0 233.000000 233.000000"
 preserveAspectRatio="xMidYMid meet">
<metadata>
Created by potrace 1.11, written by Peter Selinger 2001-2013
</metadata>
<g transform="translate(0.000000,233.000000) scale(0.100000,-0.100000)"
fill="#000000" stroke="none">
<path d="M125 2316 c6 -19 106 -300 112 -316 4 -8 7 -17 8 -20 1 -3 5 -12 8
-20 4 -8 50 -136 102 -285 53 -148 100 -279 105 -290 5 -11 61 -166 125 -345
63 -179 118 -332 121 -340 7 -19 20 13 74 190 22 74 45 146 50 160 20 57 93
296 93 305 0 6 -77 227 -172 491 l-173 480 -228 1 c-167 1 -228 -2 -225 -11z"/>
<path d="M1070 2321 c0 -3 84 -197 186 -430 l187 -424 -20 -61 c-12 -34 -46
-133 -78 -221 -181 -509 -391 -1157 -381 -1173 2 -4 98 -7 212 -7 l209 0 27
75 c32 91 110 310 258 730 61 173 119 338 130 365 10 28 62 174 115 325 54
151 124 352 157 445 92 260 128 364 128 374 0 4 -254 8 -565 8 -311 0 -565 -3
-565 -6z"/>
</g>
</svg>
