<svg xmlns="http://www.w3.org/2000/svg" viewBox="0 0 43.25 43.27"><defs><style>.cls-1{fill:#ff4a4f;}</style></defs><title>3</title><g id="Layer_2" data-name="Layer 2"><g id="Layer_2-2" data-name="Layer 2"><path class="cls-1" d="M21.67,28.1c-1.39,1.36-2.74,2.66-4.06,4Q12.37,37.32,7.14,42.57a1.6,1.6,0,0,1-2.66,0L.75,38.81a1.65,1.65,0,0,1,0-2.71l14-14a6.2,6.2,0,0,1,.6-.46L13,19.32l-8-7.9L.63,7.06a1.58,1.58,0,0,1,0-2.5q2-2,3.93-4A1.58,1.58,0,0,1,7,.61q6.15,6.07,12.28,12.15c.76.75,1.47,1.54,2.23,2.34.22-.18.33-.26.44-.36L34.5,2.29,36.27.56a1.57,1.57,0,0,1,2.39,0q2,2,4,4.07a1.55,1.55,0,0,1,0,2.39C40.11,9.56,37.5,12.08,35,14.65c-2.28,2.3-4.52,4.66-6.77,7L28,21.55l.41.43,13.88,13.9c.16.16.32.32.47.49a1.5,1.5,0,0,1,0,2.21c-1.39,1.42-2.8,2.83-4.22,4.22a1.49,1.49,0,0,1-2,.11,5.22,5.22,0,0,1-.53-.5l-14-14.06Z"/></g></g></svg>