<svg xmlns="http://www.w3.org/2000/svg" viewBox="0 0 150.14 177.72"><defs><style>.cls-1{fill:#fff;}</style></defs><title>Asset 7</title><g id="Layer_2" data-name="Layer 2"><g id="Layer_2-2" data-name="Layer 2"><path class="cls-1" d="M9.63,172.89H6.23L0,155.37H3.88l3.3,10.13c.33,1,.68,2.25.83,2.88.15-.65.48-1.85.8-2.88L12,155.37h3.83Z"/><path class="cls-1" d="M27.23,167.43H19.37a2.53,2.53,0,0,0,2.7,2.48,2.93,2.93,0,0,0,2.25-.93L26.78,171a6.13,6.13,0,0,1-4.71,2.13c-3.78,0-6.18-2.68-6.18-6.83s2.53-6.86,5.86-6.86c3.5,0,5.53,3.1,5.53,6.86A10.74,10.74,0,0,1,27.23,167.43Zm-5.66-5a2.28,2.28,0,0,0-2.15,2.35h4.5A2.33,2.33,0,0,0,21.57,162.48Z"/><path class="cls-1" d="M37.71,163.78a3,3,0,0,0-2-.85c-1.35,0-2.23.58-2.23,2.85v7.11H30V159.75h3.45v.88a3.64,3.64,0,0,1,2.7-1.15,3.36,3.36,0,0,1,2.43.93Z"/><path class="cls-1" d="M51,167.43H43.17a2.53,2.53,0,0,0,2.7,2.48,2.93,2.93,0,0,0,2.25-.93L50.57,171a6.13,6.13,0,0,1-4.71,2.13c-3.78,0-6.18-2.68-6.18-6.83s2.53-6.86,5.86-6.86c3.5,0,5.53,3.1,5.53,6.86A10.74,10.74,0,0,1,51,167.43Zm-5.66-5a2.28,2.28,0,0,0-2.15,2.35h4.5A2.33,2.33,0,0,0,45.37,162.48Z"/><path class="cls-1" d="M61.76,172.89v-7.11c0-2.35-.8-3.05-2.23-3.05s-2.25.7-2.25,3v7.18H53.82V159.75h3.45v.88a4.31,4.31,0,0,1,3.08-1.15c3.35,0,4.85,2.3,4.85,6v7.41Z"/><path class="cls-1" d="M70.29,158.67a2,2,0,1,1,2-2A2,2,0,0,1,70.29,158.67Zm-1.73,14.21V159.75H72v13.14Z"/><path class="cls-1" d="M80.5,177.72l-1.23-2.6c2.7-.38,3.43-1,3.43-3.05a4,4,0,0,1-2.78,1.1c-2.8,0-5.1-2.1-5.1-7,0-3.93,1.85-6.68,5.1-6.68a4.16,4.16,0,0,1,2.78,1v-.75h3.45v10.91C86.15,175,85.1,177.22,80.5,177.72Zm2.2-13.86a2.75,2.75,0,0,0-2.33-1.13c-1.33,0-2.05,1.15-2.05,3.35,0,2.7.9,3.83,2.25,3.83a2.42,2.42,0,0,0,2.13-1.1Z"/><path class="cls-1" d="M91.41,158.67a2,2,0,1,1,2-2A2,2,0,0,1,91.41,158.67Zm-1.73,14.21V159.75h3.45v13.14Z"/><path class="cls-1" d="M104.55,172.89v-7.11c0-2.35-.8-3.05-2.23-3.05s-2.25.7-2.25,3v7.18H96.61V159.75h3.45v.88a4.31,4.31,0,0,1,3.08-1.15c3.35,0,4.85,2.3,4.85,6v7.41Z"/><path class="cls-1" d="M116.23,177.72l-1.23-2.6c2.7-.38,3.43-1,3.43-3.05a4,4,0,0,1-2.78,1.1c-2.8,0-5.1-2.1-5.1-7,0-3.93,1.85-6.68,5.1-6.68a4.16,4.16,0,0,1,2.78,1v-.75h3.45v10.91C121.89,175,120.84,177.22,116.23,177.72Zm2.2-13.86a2.75,2.75,0,0,0-2.33-1.13c-1.33,0-2.05,1.15-2.05,3.35,0,2.7.9,3.83,2.25,3.83a2.42,2.42,0,0,0,2.13-1.1Z"/><path class="cls-1" d="M135.95,167.43h-7.86a2.53,2.53,0,0,0,2.7,2.48A2.93,2.93,0,0,0,133,169L135.5,171a6.13,6.13,0,0,1-4.71,2.13c-3.78,0-6.18-2.68-6.18-6.83s2.53-6.86,5.86-6.86c3.5,0,5.53,3.1,5.53,6.86A10.74,10.74,0,0,1,135.95,167.43Zm-5.66-5a2.28,2.28,0,0,0-2.15,2.35h4.5A2.33,2.33,0,0,0,130.29,162.48Z"/><path class="cls-1" d="M146.68,172.89v-7.11c0-2.35-.8-3.05-2.23-3.05s-2.25.7-2.25,3v7.18h-3.45V159.75h3.45v.88a4.31,4.31,0,0,1,3.08-1.15c3.35,0,4.85,2.3,4.85,6v7.41Z"/><polygon class="cls-1" points="43.87 0 64.14 56.42 51.92 95.57 17.49 0 43.87 0"/><polygon class="cls-1" points="112.43 0 112.3 0 72.46 0 94.51 50.23 78.33 95.9 66.13 134.99 90.9 134.99 138.72 0 112.43 0"/></g></g></svg>