<svg xmlns="http://www.w3.org/2000/svg" viewBox="0 0 155.79 28.1"><defs><style>.cls-1{fill:#016495;}.cls-2{fill:#4b93b8;}</style></defs><title>Asset 9</title><g id="Layer_2" data-name="Layer 2"><g id="Layer_1-2" data-name="Layer 1"><polygon class="cls-1" points="22.13 5.43 22.13 0 0 11.91 0 16.05 22.13 28.1 22.13 22.67 5.03 14 22.13 5.43"/><polygon class="cls-1" points="32.15 22.67 32.15 28.1 54.28 16.05 54.28 11.91 32.15 0 32.15 5.43 49.25 14 32.15 22.67"/><circle class="cls-2" cx="29.26" cy="8.68" r="1.06"/><circle class="cls-2" cx="28.21" cy="4.05" r="1.63"/><circle class="cls-2" cx="24.83" cy="9.54" r="0.87"/><path class="cls-2" d="M45.56,14.27c-4.18.63-15.31,2.58-21.2.42-6.59-2.41-13.93-1-16.47-.78l19.34,9.82Z"/><path class="cls-1" d="M90.34,1.48H86.16l-9,25.12H82l.13-.34c.57-1.5,1.46-3.67,2.7-6.65l1.69-4.29,2.26-6.25,2.17,6.27,1.71,4.29,1.1,2.7H85.86l-1.69,4.29H100.3Z"/><polygon class="cls-2" points="145.31 14.12 154.77 1.82 149.13 1.82 140.58 13.17 140.58 15.26 149.92 26.62 155.78 26.62 145.31 14.12"/><path class="cls-1" d="M117.15,13.19a6.42,6.42,0,0,0,1.22-7.14,6.51,6.51,0,0,0-6.27-4.24H101.7V26.6h11.25c4.88,0,7.43-3.86,7.43-7.68A6.27,6.27,0,0,0,117.15,13.19Zm-4.2,9h-6.8V6.14h6a2.28,2.28,0,0,1,2.24,2.51,4,4,0,0,1-.55,2.11,2.16,2.16,0,0,1-1.71.78h-3.69V16H113a2.71,2.71,0,0,1,2.89,2.93A3,3,0,0,1,112.95,22.23Z"/><path class="cls-2" d="M134.74,12.46l-.38.55C134.48,12.84,134.61,12.65,134.74,12.46Z"/><path class="cls-2" d="M130.58,1.56c-6.35,0-9.25,4.56-9.25,8.78a8.68,8.68,0,0,0,4.26,7.56,7,7,0,0,0,2.26.76l2.72-4.05c-3.25,0-4.73-2.2-4.73-4.24s1.46-4.22,4.73-4.22,4.73,2.13,4.73,4.22a4.37,4.37,0,0,1-.57,2.13l0,0,0,0a3.19,3.19,0,0,1-.38.55l-3.95,5.64-5.62,8h5.53l8-11.23a9.55,9.55,0,0,0,1.54-5.07C139.85,6,136.66,1.56,130.58,1.56Z"/><polygon class="cls-1" points="65.15 1.82 60.68 1.82 60.68 26.62 65.15 26.62 65.15 22.13 65.15 1.82"/><rect class="cls-1" x="66.82" y="22.13" width="9.5" height="4.5"/></g></g></svg>